<svg xmlns="http://www.w3.org/2000/svg" viewBox="0 0 658 576"><circle cx="369.4" cy="288" r="288" fill="#044171" /><path fill="#ffb129" d="m197 231-7-1c-4 0-9 2-12 4-3 3-5 4-8 10a145 145 0 0 1-57 57c-20 11-48 21-80 28l-16 7c-9 7-15 17-16 29l-1 14c3 19 16 32 33 34h14c8-2 10-2 11-1a852 852 0 0 1 22 24l5 1h7l4 5a3087 3087 0 0 0 39 53c3 1 5 1 8-1l15-15c4-5 6-9 6-13 1-4 0-5-5-10-9-10-18-21-22-29-2-5-2-5-1-10v-5c0-1-3-4-8-7l-3-3 2-2c1-2 0-2 9-2 16 0 31 2 42 4 13 4 22 7 34 14 8 4 10 5 16 6h12l10-6c6-5 10-12 13-22 1-3 2-5 2-11 2-8 2-11 2-18 0-28-9-62-22-88-12-24-26-39-41-45l-7-1Zm1 12h3c8 2 15 9 24 22a200 200 0 0 1 30 77c1 15 2 26 0 36-3 13-7 21-15 27l-2 2 11-4 2-1-2 2c-2 4-7 6-12 6-15 0-31-15-42-40l-1-3 5-2a1441 1441 0 0 1 35-18c2-3 3-5 3-10 1-4 0-8-1-13-3-10-8-17-14-20h-16a1898 1898 0 0 0-28 3l-1-6v-21c0-7 3-20 4-25 3-7 6-10 11-12h6Zm20 65 1 1c6 1 12 11 13 21v8l-2 5c-2 3-2 3-16 7-9 3-9 3 2-1l7-3 1-1-2-1c-5-4-9-11-9-19a22 22 0 0 1 2-12l-3 3-2 5v6l-11 3-12 2c-2 1-3 2-3 4l-1 2-3-16v-7l6-1a498 498 0 0 0 32-6Zm3 6c-2 0-4 3-4 6v6h1l6-2 2 2 3 9v1-4l-3-13-5-5Z"/><path fill="#fff" d="M515 73c-3 0-7 2-11 4l-23 12-2 2v2l24 44 1 2h3l23-13c5-3 9-6 11-10 1-4 1-8-2-13l-11-21c-3-5-6-8-10-8l-3-1Zm-1 9h2l3 2 2 4 10 18 2 4v3l-3 4-5 4-17 9-19-37 16-9 6-2h3Zm0 0h-3l-5 3-16 8 19 36 16-9 5-3 2-4v-3l-2-4-9-18-2-3-3-2-2-1Zm-4 8 2 1 2 2 9 16v3l-2 2-8 5-12-24 8-4 1-1Zm-50 11h-2l-19 10-2 2v2l2 19 1 7 2 5 10 18 1 2h2l11-6 1-1v-3l-5-9 12-7 5 10 2 2 2-1 10-5 2-2-1-2-9-18-3-5-6-5-14-12-2-1Zm-3 9h2l3 3 11 8a21 21 0 0 1 4 6l8 15h-1l-6-11-27 14 7 11-1 1-8-15-1-3-1-4-2-14v-4l3-3 7-3 2-1Zm0 1h-2l-7 4c-1 1-2 1-2 3v3l2 14v3l2 4 1 2 27-14-1-2-2-4-3-2-10-9-3-2h-2Zm0 8 1 1 9 8-11 6-3-12 1-1v-1l2-1h1Zm-38 3h-2l-32 17-1 2v2l24 45 1 1h3l31-17 2-2v-2l-5-8-1-1h-2l-19 10-3-6 13-7 1-2v-2l-4-7-1-2-3 1-13 7-3-6 19-10 2-1-1-2-4-8-1-2h-1Zm-2 9-22 12 9 17 17-9v1l-17 9 10 18 22-12v1l-23 12-19-37Zm-50 20-10 3-23 12-1 2v2l24 44 1 2h3l10-6 2-2-1-2-7-13 10-5 2-1 2 2 6 11 1 1h2l11-6 2-1-1-2-8-15c-1-3-3-5-6-6h-7l1-4-1-5-2-4c-2-3-4-5-7-6l-3-1Zm-3 9 1 1c2 0 4 2 5 4l3 5 2 6-2 4h1c2-2 5-2 7-2 2 1 4 2 5 5l5 9h-1l-5-9-4-4c-2-1-4 0-7 1l-19 11 8 15-1 1-19-37 15-9 6-1Zm0 1-5 1-15 8 10 20 15-8c3-1 5-3 5-5l-2-7-2-4-5-5h-1Zm-3 7 1 1 2 2 1 2 1 3-2 2-5 2-5-8 5-3 2-1Zm-41 8c-3 0-7 1-11 4l-21 11-2 2v2l24 44 1 2 3-1 10-5 2-2v-2l-6-11 7-5c7-3 10-6 11-10s1-8-1-12l-5-8c-2-4-5-7-9-8l-3-1Zm-1 8 2 1 3 2 2 3 3 5 1 4v4l-2 4-5 3-14 8 7 13-20-37 15-8 6-2h2Zm0 1h-2l-6 2-14 8 12 22 14-8 5-3 2-3v-4l-2-3-3-5-2-3a7 7 0 0 0-4-3Zm-4 8h2l2 2 1 4 1 3-2 2-6 3-6-10 7-3 1-1Zm-41 5-1 1-19 10c-5 2-8 5-9 9-2 3-1 7 1 10l3 8c2 4 5 6 8 6 3 1 6 1 9-1l11-4h2l1 2v2l-1 1-18 10-2 1 1 2 4 8 2 2h2l22-12c4-2 7-5 8-9 2-3 1-7-1-11l-3-7c-2-4-5-6-8-6-3-1-6-1-9 1l-11 4h-2l-1-2v-1l1-2 16-8 1-2v-2l-4-8-2-2h-1Zm-2 9 1 1-16 8c-2 1-3 2-3 4v4l3 6 3 3h3l16-5h4l4 4 2 4c1 2 2 4 1 7-1 2-2 3-5 4l-17 9 17-9c2-1 4-3 4-5v-5l-2-4-4-4h-4l-16 5h-4l-3-4-3-5v-6l4-4Zm190 30h-1l-35 9-2 2v2l13 48 1 2h2l35-9 2-1v-3l-2-8-1-2h-3l-20 5-2-6 15-4 1-1v-2l-2-9-1-1-2-1-15 4-1-5 20-6 2-1v-2l-2-9-1-2h-1Zm-4 8 1 1-25 6 5 19 19-5v1l-19 5 6 19 24-7v1l-25 7-11-40Zm-47 5-1 1-12 3-2 1v2l5 17-13 3-4-16-1-2h-3l-11 3-2 1v2l13 49 1 2h3l11-3 2-2v-2l-4-16 12-4 5 17 1 2h2l12-3 2-2v-2l-14-48-1-2-1-1Zm-5 9 11 40v1l-6-20-29 8 6 19-1 1-11-41h1l5 20 29-8-5-20Zm-49 6h-1l-39 11-2 1v2l2 10 1 1h3l11-2 10 36 1 2h2l12-3 2-1v-2l-10-37 11-3 2-1v-3l-2-9-2-2h-1Zm-3 8v1l-15 4 11 40h-1l-11-40-15 4Zm-51 78-2 1-1 2-6 50v2l2 1 40 5 2-1 1-2 3-24-1-2-2-1-11-1h-2l-1 2-2 13-10-2 5-38-1-2-2-1Zm68 8h-6c-3 1-6 1-8 3l-4 4-2 6-3 27v6l3 6 7 4 12 2 12 1c3-1 6-1 8-3l4-4 2-6 3-27v-6l-3-6-7-4-12-2-6-1Zm-63 0h1l-5 41 27 3 1-15h1l-2 16-28-3Zm104 6-2 1-1 2-2 20-1 3 1 3v2l1 3 5 20 1 2 3 1 20 2h2l2-2 10-18 1-2 1-3 1-2 1-3 2-20v-3l-2-1-12-1h-3v2l-3 22v1l-1 2-5 10-1 1h-2l-1-1-2-12v-3l2-21v-2l-2-1Zm-40 1 4 1c6 0 10 2 12 4s3 5 3 8l-3 23c-1 3-2 5-5 7-2 2-6 2-12 1-6 0-10-2-12-4s-3-5-2-8l2-23c1-3 2-5 5-7l8-2Zm0 1-8 2c-2 1-3 3-4 6l-3 23c0 3 1 5 3 7 1 2 5 4 11 4 6 1 10 1 12-1 2-1 4-3 4-6l3-23-2-7c-2-2-6-4-12-5h-4Zm98 5-2 1-1 2-7 50 1 2 2 1 36 4h2l1-2 1-9-1-2-2-1-21-3 1-7 15 2h2l1-2 1-8v-3l-2-1-15-1 1-6 21 2h2l1-2 1-9v-2l-2-1Zm-52 1-2 17v3l1 4 3 13 1 3 3 2 7 1 3-1 3-3 6-12 2-3v-4l2-16h1l-2 16a23 23 0 0 1-2 8l-7 11-2 4-4 1-7-1-3-2-2-4-3-13a17 17 0 0 1-1-8Zm-44 1 1 1 6 1v3l-2 21-2 2h-5l-5-1-1-3 2-21 2-2 4-1Zm147 5h-2l-1 2-2 30v2l2 1 12 2 2-1 1-2 5-29v-3h-2Zm-46 1 26 3-1 1-25-3-2 19 19 2v1l-19-2-3 20 25 3v1l-26-3Zm52 7h1l-3 21Zm-11 32h-2l-1 2-1 10v2l3 1 14 2h2l1-2 1-11v-2l-2-1Zm6 7h1v3h-1Z" /></svg>
