<?xml version="1.0" encoding="UTF-8" standalone="no"?>
<!-- Created with Inkscape (http://www.inkscape.org/) -->

<svg
   width="150"
   height="75"
   viewBox="0 0 39.687499 19.84375"
   version="1.1"
   id="svg5"
   xmlns:xlink="http://www.w3.org/1999/xlink"
   xmlns="http://www.w3.org/2000/svg"
   xmlns:svg="http://www.w3.org/2000/svg">
  <defs
     id="defs2">
    <linearGradient
       id="linearGradient4622">
      <stop
         style="stop-color:#ebe9a7;stop-opacity:0.62598187;"
         offset="0"
         id="stop4618" />
      <stop
         style="stop-color:#000000;stop-opacity:0;"
         offset="1"
         id="stop4620" />
    </linearGradient>
    <linearGradient
       xlink:href="#linearGradient4622"
       id="linearGradient4624"
       x1="1.322916"
       y1="9.921875"
       x2="38.364584"
       y2="9.921875"
       gradientUnits="userSpaceOnUse" />
  </defs>
  <g
     id="layer1">
    <rect
       style="opacity:1;fill:#ffffff;stroke-width:0.129449"
       id="rect234"
       width="39.6875"
       height="19.84375"
       x="0"
       y="0" />
    <rect
       style="opacity:1;fill:url(#linearGradient4624);fill-opacity:1;stroke-width:0.237961"
       id="rect4585"
       width="37.041668"
       height="17.197916"
       x="1.322916"
       y="1.322917" />
    <path
       id="path237"
       style="font-size:5.64444px;line-height:1;font-family:'Abril Fatface';-inkscape-font-specification:'Abril Fatface';fill:#000000;stroke-width:0.264583"
       d="m 10.641728,4.2421183 v 0.1018025 h 0.344681 v 1.6650147 c -0.105363,-0.1843849 -0.3236,-0.2764689 -0.65474,-0.2764689 -0.7450657,0 -1.1177612,0.468106 -1.1177612,1.4050821 0,0.4628437 0.088242,0.8110774 0.2651001,1.0443807 0.1806219,0.2333033 0.4329288,0.3498495 0.7565431,0.3498495 0.391347,0 0.650823,-0.1506155 0.778764,-0.451652 l 0.06201,0.3953247 H 12.32948 V 8.373649 H 12.053011 V 4.2421183 Z M 3.7615275,4.5242716 v 0.107487 H 4.071586 v 3.736206 H 3.7615275 v 0.107487 H 5.4828694 V 8.3679646 H 5.172294 V 4.6317586 H 5.4828694 V 4.5242716 Z M 19.588468,4.8007405 18.538403,5.060673 v 0.7281209 h -0.310575 v 0.1012858 h 0.310575 v 1.778186 c 0,0.3273772 0.08299,0.5533005 0.248564,0.677478 0.16557,0.1241776 0.404427,0.1860352 0.716752,0.1860352 0.312326,0 0.536327,-0.075308 0.671793,-0.225826 0.135464,-0.1542812 0.217941,-0.36099 0.248047,-0.620634 l -0.0956,-0.011369 c -0.02634,0.1956737 -0.08295,0.3501321 -0.169499,0.4630208 -0.08278,0.1128887 -0.180633,0.168982 -0.293522,0.168982 -0.112891,0 -0.188199,-0.041238 -0.225826,-0.1240235 -0.03387,-0.082785 -0.05064,-0.2127813 -0.05064,-0.3896403 V 5.8900797 h 0.733806 V 5.7887939 h -0.733806 z m -1.676383,0.9203572 c -0.03763,0.071496 -0.06978,0.1204205 -0.09612,0.1467611 -0.02635,0.026341 -0.05849,0.039274 -0.09612,0.039274 -0.03763,0 -0.0918,-0.014854 -0.163297,-0.044958 C 17.360874,5.7756268 17.170425,5.732467 16.98604,5.732467 c -0.301036,0 -0.541814,0.088241 -0.722436,0.2651001 -0.180622,0.173096 -0.270785,0.4061883 -0.270785,0.6996988 0,0.2935106 0.103613,0.5084219 0.310575,0.6438884 0.173097,0.1128887 0.387491,0.2030513 0.643372,0.2707845 0.22954,0.045155 0.417554,0.1089345 0.564307,0.1917195 0.09407,0.052681 0.141076,0.131832 0.141076,0.2371949 0,0.2445921 -0.191854,0.3669026 -0.575675,0.3669026 -0.248355,0 -0.455064,-0.0657 -0.620634,-0.1974039 C 16.290273,8.078648 16.158355,7.8488818 16.060518,7.5215046 h -0.0677 v 1.0102743 h 0.0677 c 0.07902,-0.1392294 0.160095,-0.2087728 0.242879,-0.2087728 0.02634,0 0.06182,0.014855 0.106971,0.044958 0.218251,0.1091257 0.444174,0.1638143 0.677478,0.1638143 0.327377,0 0.584931,-0.080555 0.773079,-0.2423625 0.188148,-0.16557 0.282153,-0.4068649 0.282153,-0.7229533 0,-0.3198513 -0.103096,-0.5510221 -0.310058,-0.6940145 -0.1016,-0.067733 -0.209056,-0.1243434 -0.321944,-0.1694987 -0.11289,-0.048919 -0.297058,-0.1050119 -0.552938,-0.1689819 -0.02258,-0.00376 -0.05857,-0.01337 -0.107487,-0.028422 -0.04515,-0.015052 -0.07871,-0.02658 -0.101286,-0.034107 -0.02258,-0.011289 -0.05088,-0.024222 -0.08475,-0.039274 -0.03387,-0.018815 -0.05833,-0.035591 -0.07338,-0.050643 -0.01505,-0.015051 -0.03567,-0.037592 -0.06201,-0.067696 -0.02634,-0.033866 -0.03979,-0.079464 -0.03979,-0.135909 0,-0.094074 0.04316,-0.1707864 0.129707,-0.2309936 0.08655,-0.063971 0.218466,-0.096118 0.395325,-0.096118 0.402636,0 0.700016,0.2446207 0.891935,0.7338053 h 0.0677 V 5.7210977 Z M 7.8930582,5.7324666 c -0.2521181,0 -0.4401291,0.05225 -0.5643067,0.1576131 C 7.2045739,5.9954425 7.1119731,6.1350461 7.0517659,6.308142 V 5.7887939 H 5.6916422 V 5.8900797 H 6.0022175 V 8.373649 H 5.6916422 V 8.4754516 H 7.2946451 V 8.373649 H 7.0517659 V 6.8161213 c 0,-0.2257773 0.045598,-0.4176312 0.135909,-0.5756754 0.094074,-0.1580441 0.2010128,-0.2371948 0.3214274,-0.2371948 0.079022,0 0.1337103,0.033553 0.1638143,0.1012858 0.030104,0.06397 0.044958,0.2088214 0.044958,0.4345988 V 8.373649 H 7.4868814 V 8.4754516 H 9.0841999 V 8.373649 H 8.7679402 V 6.6750447 c 0,-0.6284137 -0.2916238,-0.9425781 -0.874882,-0.9425781 z m 14.7034948,0 c -0.176859,0 -0.334643,0.05225 -0.473873,0.1576131 -0.139227,0.1015998 -0.233233,0.2483724 -0.282153,0.4402832 v -0.541569 h -1.36064 v 0.1012858 h 0.310575 V 8.373649 h -0.310575 v 0.1018026 h 1.761132 V 8.373649 H 21.840527 V 6.8610798 c 0,-0.2483551 0.05277,-0.4627497 0.15813,-0.6433715 0.105363,-0.1806219 0.227673,-0.2707845 0.366903,-0.2707845 0.173095,0 0.212411,0.095927 0.118339,0.2878377 H 22.28081 c -0.06021,0.1994366 -0.05112,0.3552998 0.02791,0.4681884 0.08279,0.1128887 0.208938,0.1694987 0.378271,0.1694987 0.173096,0 0.301171,-0.048924 0.383956,-0.146761 0.08278,-0.097837 0.124023,-0.2369236 0.124023,-0.4175456 0,-0.1843848 -0.05609,-0.3259098 -0.168982,-0.4237467 C 22.916859,5.7827954 22.773412,5.7324666 22.596553,5.7324666 Z m -10.182324,0.056327 v 0.1012858 h 0.31626 v 1.6991211 c 0,0.6284137 0.291624,0.9425781 0.874882,0.9425781 0.233303,0 0.407864,-0.039317 0.524516,-0.1183391 0.120415,-0.082785 0.211094,-0.1993312 0.271301,-0.3498494 l 0.06201,0.4118612 h 1.286743 V 8.373649 H 15.439884 V 5.7887939 h -1.309997 v 0.1012858 h 0.259932 v 1.7275431 c 0,0.2069626 -0.03791,0.3685901 -0.113171,0.4852417 -0.07526,0.1166516 -0.161579,0.1751831 -0.259416,0.1751831 -0.09407,0 -0.157853,-0.035991 -0.191719,-0.107487 -0.03011,-0.071496 -0.04548,-0.2201902 -0.04548,-0.4459676 V 5.7887939 Z m 10.747148,0 v 0.1012858 h 0.23151 l 0.964799,2.5853719 h 0.497127 l -0.12454,0.3498494 c -0.109126,0.3123254 -0.22375,0.544013 -0.344165,0.6945312 -0.120414,0.1542812 -0.25758,0.2309937 -0.411861,0.2309937 -0.07902,0 -0.129866,-0.027788 -0.152446,-0.084233 -0.02258,-0.056444 -0.01874,-0.1279092 0.01137,-0.2144572 h 0.197404 c 0.02258,-0.079022 0.03359,-0.1471605 0.03359,-0.2036051 0,-0.259644 -0.155863,-0.3891236 -0.468189,-0.3891236 -0.135465,0 -0.244843,0.041238 -0.327628,0.1240235 -0.08278,0.082785 -0.124024,0.2031741 -0.124024,0.3612182 0,0.1580442 0.06378,0.2880405 0.19172,0.3896403 0.127941,0.1015999 0.303018,0.1524455 0.525033,0.1524455 0.222014,0 0.410025,-0.071465 0.564306,-0.2144572 0.154281,-0.1392294 0.293885,-0.3857718 0.418063,-0.7394897 L 25.898678,5.890079 h 0.282154 V 5.7887939 h -0.795817 v 0.1012858 h 0.378271 L 25.108546,7.7643839 24.493079,5.8900797 H 24.79797 V 5.7887939 Z M 10.624674,5.8957641 c 0.124176,0 0.218697,0.05661 0.28267,0.1694987 0.06397,0.1128887 0.0956,0.250054 0.0956,0.4118611 v 1.2304159 c 0,0.1919107 -0.04124,0.3372786 -0.124024,0.4351155 -0.07902,0.097837 -0.174949,0.1467611 -0.287837,0.1467611 -0.109126,0 -0.184433,-0.064296 -0.225826,-0.1922363 -0.04139,-0.1317035 -0.06201,-0.3950222 -0.06201,-0.7901327 V 7.0135253 c 0,-0.4139252 0.02254,-0.7036275 0.0677,-0.8691976 0.04515,-0.1655701 0.129554,-0.2485636 0.253731,-0.2485636 z m 16.498735,4.1289469 v 0.101803 h 0.344681 v 1.665014 c -0.105362,-0.184385 -0.3236,-0.276469 -0.65474,-0.276469 -0.745065,0 -1.117761,0.468623 -1.117761,1.405599 0,0.462844 0.08824,0.810561 0.2651,1.043864 0.180622,0.233304 0.432929,0.350366 0.756543,0.350366 0.391348,0 0.650823,-0.150615 0.778764,-0.451652 l 0.06201,0.394808 H 28.81116 V 14.156758 H 28.534692 V 10.024711 Z M 5.358846,10.273275 3.9191406,14.151074 H 3.6540405 v 0.10697 h 0.8635132 v -0.10697 h -0.42323 l 0.4345988,-1.219047 h 1.1177612 l 0.4118611,1.219047 H 5.6580525 v 0.10697 h 1.8453654 v -0.10697 H 7.2440022 L 5.82135,10.273275 Z m -0.2485637,1.055749 0.4909261,1.478463 h -1.021643 z m 4.5552775,0.186035 c -0.3725327,0 -0.6325254,0.167392 -0.7792806,0.502295 V 11.571387 H 7.5488931 v 0.101802 h 0.2992066 v 3.82664 H 7.5375243 v 0.101802 H 9.6257689 V 15.499829 H 8.897648 v -1.461926 c 0.056444,0.09408 0.1298306,0.164136 0.2201416,0.209289 0.090311,0.04515 0.2260716,0.0677 0.4066935,0.0677 0.3875844,0 0.6772869,-0.113219 0.8691979,-0.338997 0.195673,-0.225777 0.293522,-0.575416 0.293522,-1.049548 0,-0.474133 -0.09068,-0.828131 -0.271301,-1.061434 -0.176859,-0.233304 -0.4267277,-0.34985 -0.7503422,-0.34985 z m 3.3186602,0 c -0.372533,0 -0.632008,0.167392 -0.778764,0.502295 v -0.445967 h -1.337902 v 0.101802 h 0.299206 v 3.82664 h -0.310575 v 0.101802 h 2.088761 v -0.101802 h -0.728121 v -1.461926 c 0.05645,0.09408 0.129831,0.164136 0.220142,0.209289 0.09031,0.04515 0.225555,0.0677 0.406177,0.0677 0.387584,0 0.677286,-0.113219 0.869197,-0.338997 0.195674,-0.225777 0.293522,-0.575416 0.293522,-1.049548 0,-0.474133 -0.09016,-0.828131 -0.270784,-1.061434 -0.176859,-0.233304 -0.427244,-0.34985 -0.750859,-0.34985 z m 3.307809,0 c -0.176859,0 -0.33516,0.05277 -0.47439,0.15813 -0.139228,0.1016 -0.233233,0.248373 -0.282153,0.440283 v -0.542085 h -1.360124 v 0.101802 h 0.310575 v 2.483569 h -0.310575 v 0.101286 h 1.761133 v -0.101286 h -0.401009 v -1.512569 c 0,-0.248355 0.05277,-0.463266 0.15813,-0.643888 0.105362,-0.180622 0.227673,-0.270785 0.366902,-0.270785 0.173096,0 0.212412,0.09593 0.118339,0.287838 h -0.203088 c -0.06021,0.199437 -0.0506,0.355817 0.02842,0.468705 0.08278,0.112889 0.208938,0.168982 0.378271,0.168982 0.173097,0 0.300655,-0.04892 0.383439,-0.146761 0.08279,-0.09784 0.124541,-0.236923 0.124541,-0.417545 0,-0.184385 -0.05661,-0.325393 -0.169499,-0.42323 -0.109126,-0.1016 -0.252055,-0.152446 -0.428914,-0.152446 z m 2.167309,0 c -0.466607,0 -0.829695,0.122311 -1.089339,0.366903 -0.255881,0.240829 -0.383956,0.587141 -0.383956,1.038696 0,0.447792 0.120389,0.792182 0.361218,1.033012 0.240829,0.240829 0.596749,0.361218 1.067119,0.361218 0.955791,0 1.433504,-0.480151 1.433504,-1.439705 0,-0.45908 -0.114625,-0.799629 -0.344165,-1.021643 -0.229541,-0.225778 -0.577775,-0.338481 -1.044381,-0.338481 z m 5.745903,0 c -0.421451,0 -0.769168,0.118468 -1.043864,0.355534 -0.270933,0.237067 -0.406694,0.579536 -0.406694,1.027328 0,0.444028 0.120389,0.792262 0.361218,1.04438 0.244593,0.248355 0.609603,0.372587 1.095024,0.372587 0.372533,0 0.651223,-0.07531 0.835608,-0.225826 0.188148,-0.150518 0.318144,-0.361587 0.38964,-0.632519 l -0.101802,-0.01654 c -0.135467,0.466607 -0.421326,0.699699 -0.857829,0.699699 -0.233303,0 -0.397369,-0.094 -0.491443,-0.282153 -0.09407,-0.188148 -0.141077,-0.466838 -0.141077,-0.835608 v -0.220142 h 1.592151 c 0.03387,-0.857954 -0.376741,-1.286743 -1.230932,-1.286743 z m -4.396631,0.05633 v 0.101802 h 0.23151 l 1.043864,2.584855 h 0.643372 l 0.835608,-2.584855 h 0.248563 V 11.571387 H 22.0493 v 0.101802 h 0.378271 l -0.609782,1.873788 -0.677478,-1.873788 h 0.356051 v -0.101802 z m -1.39268,0.04547 c 0.0051,-1.91e-4 0.01033,0 0.0155,0 0.142988,0 0.233151,0.0844 0.270784,0.253731 0.04139,0.16557 0.06201,0.43081 0.06201,0.795817 v 0.480074 c 0,0.421451 -0.01678,0.692456 -0.05064,0.81287 -0.04516,0.169334 -0.141082,0.253732 -0.287838,0.253732 -0.120413,0 -0.201485,-0.04508 -0.242879,-0.135392 -0.02634,-0.05268 -0.05272,-0.120304 -0.07906,-0.203089 -0.02258,-0.08278 -0.03411,-0.329327 -0.03411,-0.73949 v -0.440283 c 0,-0.346191 0.01729,-0.604263 0.05116,-0.773596 0.02258,-0.109128 0.05805,-0.18584 0.10697,-0.230994 0.04939,-0.04586 0.112255,-0.07051 0.188103,-0.07338 z m 5.744352,0.0057 c 0.109126,0 0.180591,0.05609 0.214457,0.168982 0.03763,0.109126 0.05633,0.316352 0.05633,0.621151 v 0.276469 h -0.58136 v -0.276469 c 0,-0.289748 0.02446,-0.493131 0.07338,-0.609782 0.05268,-0.120415 0.131833,-0.180351 0.237195,-0.180351 z m 2.94659,0.05633 c 0.124175,0 0.21818,0.05609 0.282154,0.168981 0.06397,0.11289 0.09612,0.250572 0.09612,0.412378 v 1.230416 c 0,0.191911 -0.04176,0.336762 -0.124541,0.434599 -0.07902,0.09784 -0.174949,0.146761 -0.287837,0.146761 -0.109125,0 -0.184433,-0.06378 -0.225826,-0.191719 -0.04139,-0.131704 -0.06201,-0.39554 -0.06201,-0.79065 v -0.293522 c 0,-0.413925 0.02254,-0.703628 0.0677,-0.869198 0.04516,-0.16557 0.13007,-0.248046 0.254248,-0.248046 z m -17.785994,0.07906 c 0.109126,0 0.1825123,0.06762 0.2201416,0.203089 0.037629,0.131704 0.056844,0.391179 0.056844,0.778764 v 0.293522 c 0,0.413925 -0.022541,0.703627 -0.067696,0.869197 -0.045155,0.16557 -0.1300704,0.248564 -0.254248,0.248564 -0.1241779,0 -0.2181834,-0.05661 -0.2821533,-0.169499 -0.063971,-0.112888 -0.096118,-0.250054 -0.096118,-0.411861 v -1.033012 c 0,-0.237066 0.04316,-0.425077 0.1297078,-0.564306 0.086548,-0.142993 0.1843965,-0.214458 0.2935219,-0.214458 z m 3.319177,0 c 0.109129,0 0.182515,0.06762 0.220142,0.203089 0.03763,0.131704 0.05633,0.391179 0.05633,0.778764 v 0.293522 c 0,0.413925 -0.02254,0.703627 -0.0677,0.869197 -0.04515,0.16557 -0.129553,0.248564 -0.253731,0.248564 -0.124175,0 -0.218697,-0.05661 -0.28267,-0.169499 -0.06397,-0.112888 -0.0956,-0.250054 -0.0956,-0.411861 v -1.033012 c 0,-0.237066 0.04316,-0.425077 0.129708,-0.564306 0.08655,-0.142993 0.184396,-0.214458 0.293522,-0.214458 z" />
    <path
       style="opacity:1;fill:#aa4242;fill-opacity:1;stroke-width:0.264583"
       id="path4678"
       d="M 32.771251,8.6027148 C 28.22024,9.8818343 36.289303,7.0736805 31.633995,6.2515179 26.978687,5.4293553 33.597741,10.831542 29.760177,8.0709363 25.922612,5.3103306 33.149093,9.8681229 30.889349,5.7158462 28.629604,1.5635697 28.532917,10.106763 28.298563,5.3852248 28.064209,0.66368636 29.006421,9.1553141 30.843874,4.7996724 32.681327,0.44403087 25.941706,5.6950323 29.487036,2.5679759 c 3.54533,-3.12705644 -2.506232,2.9040379 2.044779,1.6249182 4.551011,-1.2791196 -3.756472,-3.27442146 0.898836,-2.4522586 4.655308,0.8221628 -3.833079,-0.1488133 0.0045,2.6117922 3.837565,2.7606055 0.217924,-4.97849664 2.477668,-0.82622 2.259745,4.1522768 -2.273538,-3.08960497 -2.039184,1.6319335 0.234355,4.7215383 4.028219,-2.9336623 2.190766,1.4219791 -1.837453,4.3556417 0.998022,-3.7038611 -2.547308,-0.5768045 -3.545329,3.1270566 4.805183,1.3202796 0.254172,2.599399 z"
       transform="translate(1.0207231,1.3191602)" />
  </g>
</svg>
